# xmcd
#
# Track frame offsets: 
#        150
#        9641
#        20630
#        34287
#        43228
#        52385
#        63415
#        73394
#        82892
#        92975
#        106924
#        116916
#        127758
#        136998
#        147778
#        159505
#        169309
#        178180
#        190959
#        203640
#
# Disc length: 2901 seconds
#
# Revision: 0
# Processed by: cddbd v1.5.2PL0 Copyright (c) Steve Scherf et al.
# Submitted via: ExactAudioCopy v0.90b4
#
DISCID=2c0b5314
DTITLE=Skeets McDonald - Goin' Steady With The Blues
DYEAR=2009
DGENRE=Country
TTITLE0=Goin' Steady With The Blues
TTITLE1=Gone And Left Me Blues
TTITLE2=Yard And A Half Of Blues
TTITLE3=You're There
TTITLE4=Hawaiian Sea Breeze
TTITLE5=Tomorrow Never Comes
TTITLE6=Blues In My Mind
TTITLE7=My Room Is Crowded
TTITLE8=I'll Sail My Ship Alone
TTITLE9=Lost Highway
TTITLE10=I'm Sorry Now
TTITLE11=Fort Worth Jail
TTITLE12=You Oughta See Grandma Rock
TTITLE13=Heart-Breaking Mama
TTITLE14=You Better Not Go
TTITLE15=Don't Push Me Too Far
TTITLE16=I'm Countin'
TTITLE17=Mean And Evil Blues
TTITLE18=The Tattooed Lady
TTITLE19=Birthday Cake Boogie
EXTD=
EXTT0=
EXTT1=
EXTT2=
EXTT3=
EXTT4=
EXTT5=
EXTT6=
EXTT7=
EXTT8=
EXTT9=
EXTT10=
EXTT11=
EXTT12=
EXTT13=
EXTT14=
EXTT15=
EXTT16=
EXTT17=
EXTT18=
EXTT19=
PLAYORDER=
